<?xml version="1.0" encoding="UTF-8"?><svg xmlns="http://www.w3.org/2000/svg" xmlns:xlink="http://www.w3.org/1999/xlink" fill-opacity="1" color-rendering="auto" color-interpolation="auto" text-rendering="auto" stroke="black" stroke-linecap="square" width="1141" stroke-miterlimit="10" shape-rendering="auto" stroke-opacity="1" fill="black" stroke-dasharray="none" font-weight="normal" stroke-width="1" height="850" font-family="'Dialog'" font-style="normal" stroke-linejoin="miter" font-size="12px" stroke-dashoffset="0" image-rendering="auto">
  <!--Generated by ySVG 2.6-->
  <defs id="genericDefs"/>
  <g>
    <defs id="defs1">
      <clipPath clipPathUnits="userSpaceOnUse" id="clipPath1">
        <path d="M0 0 L1141 0 L1141 850 L0 850 L0 0 Z"/>
      </clipPath>
      <clipPath clipPathUnits="userSpaceOnUse" id="clipPath2">
        <path d="M-77 0 L1064 0 L1064 850 L-77 850 L-77 0 Z"/>
      </clipPath>
      <clipPath clipPathUnits="userSpaceOnUse" id="clipPath3">
        <path d="M0 -10 L-12 -10 L-12 10 L0 10 Z"/>
      </clipPath>
      <clipPath clipPathUnits="userSpaceOnUse" id="clipPath4">
        <path d="M-12 10 L0 10 L0 -10 L-12 -10 Z"/>
      </clipPath>
      <clipPath clipPathUnits="userSpaceOnUse" id="clipPath5">
        <path d="M495 -727 L495 414 L-355 414 L-355 -727 L495 -727 Z"/>
      </clipPath>
      <clipPath clipPathUnits="userSpaceOnUse" id="clipPath6">
        <path d="M0 10 L0 -10 L-12 -10 L-12 10 Z"/>
      </clipPath>
      <clipPath clipPathUnits="userSpaceOnUse" id="clipPath7">
        <path d="M-432.9648 -540.3055 L708.0352 -540.3055 L708.0352 309.6945 L-432.9648 309.6945 L-432.9648 -540.3055 Z"/>
      </clipPath>
      <clipPath clipPathUnits="userSpaceOnUse" id="clipPath8">
        <path d="M-12 -10 L-12 10 L0 10 L0 -10 Z"/>
      </clipPath>
      <clipPath clipPathUnits="userSpaceOnUse" id="clipPath9">
        <path d="M-632.9707 752 L-632.9707 -389 L217.0293 -389 L217.0293 752 L-632.9707 752 Z"/>
      </clipPath>
      <clipPath clipPathUnits="userSpaceOnUse" id="clipPath10">
        <path d="M-958.3281 -275 L182.6719 -275 L182.6719 575 L-958.3281 575 L-958.3281 -275 Z"/>
      </clipPath>
      <clipPath clipPathUnits="userSpaceOnUse" id="clipPath11">
        <path d="M796.0149 275 L-344.9851 275 L-344.9851 -575 L796.0149 -575 L796.0149 275 Z"/>
      </clipPath>
      <clipPath clipPathUnits="userSpaceOnUse" id="clipPath12">
        <path d="M-254.9746 752 L-254.9746 -389 L595.0254 -389 L595.0254 752 L-254.9746 752 Z"/>
      </clipPath>
    </defs>
    <g fill="white" text-rendering="geometricPrecision" shape-rendering="geometricPrecision" transform="translate(77,0)" stroke="white">
      <rect x="-77" width="1141" height="850" y="0" clip-path="url(#clipPath2)" stroke="none"/>
    </g>
    <g text-rendering="geometricPrecision" stroke-miterlimit="1.45" shape-rendering="geometricPrecision" transform="matrix(1,0,0,1,77,0)" stroke-linecap="butt">
      <path fill="none" d="M631 455 L719 455 L719 495 L631 495 Z" clip-path="url(#clipPath2)"/>
      <text x="653.8037" xml:space="preserve" y="479.7139" clip-path="url(#clipPath2)" font-family="sans-serif" stroke="none">Сериал</text>
    </g>
    <g text-rendering="geometricPrecision" stroke-miterlimit="1.45" shape-rendering="geometricPrecision" transform="matrix(1,0,0,1,77,0)" stroke-linecap="butt">
      <path fill="none" d="M881 455 L969 455 L969 495 L881 495 Z" clip-path="url(#clipPath2)"/>
      <text x="908.9512" xml:space="preserve" y="479.7139" clip-path="url(#clipPath2)" font-family="sans-serif" stroke="none">Актер</text>
    </g>
    <g text-rendering="geometricPrecision" stroke-miterlimit="1.45" shape-rendering="geometricPrecision" transform="matrix(1,0,0,1,77,0)" stroke-linecap="butt">
      <path fill="none" d="M631 633 L719 633 L719 673 L631 673 Z" clip-path="url(#clipPath2)"/>
      <text x="647.6221" xml:space="preserve" y="657.7139" clip-path="url(#clipPath2)" font-family="sans-serif" stroke="none">Режиссер</text>
    </g>
    <g text-rendering="geometricPrecision" stroke-miterlimit="1.45" shape-rendering="geometricPrecision" transform="matrix(1,0,0,1,77,0)" stroke-linecap="butt">
      <path fill="none" d="M356 520.3055 L444 520.3055 L444 560.3055 L356 560.3055 Z" clip-path="url(#clipPath2)"/>
      <text x="382.9287" xml:space="preserve" y="545.0193" clip-path="url(#clipPath2)" font-family="sans-serif" stroke="none">Сезон</text>
    </g>
    <g text-rendering="geometricPrecision" stroke-miterlimit="1.45" shape-rendering="geometricPrecision" transform="matrix(1,0,0,1,77,0)" stroke-linecap="butt">
      <path fill="none" d="M106 520.3055 L194 520.3055 L194 560.3055 L106 560.3055 Z" clip-path="url(#clipPath2)"/>
      <text x="132.3926" xml:space="preserve" y="545.0193" clip-path="url(#clipPath2)" font-family="sans-serif" stroke="none">Серия</text>
    </g>
    <g text-rendering="geometricPrecision" stroke-miterlimit="1.45" shape-rendering="geometricPrecision" transform="matrix(1,0,0,1,77,0)" stroke-linecap="butt">
      <path fill="none" d="M631 255 L719 255 L719 295 L631 295 Z" clip-path="url(#clipPath2)"/>
      <text x="635.3994" xml:space="preserve" y="279.7139" clip-path="url(#clipPath2)" font-family="sans-serif" stroke="none">Пользователь</text>
    </g>
    <g text-rendering="geometricPrecision" stroke-miterlimit="1.45" shape-rendering="geometricPrecision" transform="matrix(1,0,0,1,77,0)" stroke-linecap="butt">
      <path fill="none" d="M881.3393 255 L961.3393 255 L961.3393 295 L881.3393 295 Z" clip-path="url(#clipPath2)"/>
      <text x="890.8647" xml:space="preserve" y="279.7139" clip-path="url(#clipPath2)" font-family="sans-serif" stroke="none">Избранное</text>
    </g>
    <g text-rendering="geometricPrecision" stroke-miterlimit="1.45" shape-rendering="geometricPrecision" transform="matrix(1,0,0,1,77,0)" stroke-linecap="butt">
      <path fill="none" d="M635 55 L715 55 L715 95 L635 95 Z" clip-path="url(#clipPath2)"/>
      <text x="657.334" xml:space="preserve" y="79.7139" clip-path="url(#clipPath2)" font-family="sans-serif" stroke="none">Отзыв</text>
    </g>
    <g text-rendering="geometricPrecision" stroke-miterlimit="1.45" shape-rendering="geometricPrecision" transform="matrix(1,0,0,1,77,0)" stroke-linecap="butt">
      <path fill="none" d="M675 347 L720 375 L675 403 L630 375 Z" clip-path="url(#clipPath2)"/>
      <text x="651.0205" xml:space="preserve" y="379.7139" clip-path="url(#clipPath2)" font-family="sans-serif" stroke="none">Смотрит</text>
    </g>
    <g text-rendering="geometricPrecision" stroke-miterlimit="1.45" shape-rendering="geometricPrecision" transform="matrix(1,0,0,1,77,0)" stroke-linecap="butt">
      <path fill="none" d="M525 512.3055 L570 540.3055 L525 568.3055 L480 540.3055 Z" clip-path="url(#clipPath2)"/>
      <text x="497.042" xml:space="preserve" y="545.0193" clip-path="url(#clipPath2)" font-family="sans-serif" stroke="none">Содержит</text>
    </g>
    <g text-rendering="geometricPrecision" stroke-miterlimit="1.45" shape-rendering="geometricPrecision" transform="matrix(1,0,0,1,77,0)" stroke-linecap="butt">
      <path fill="none" d="M275 512.3055 L320 540.3055 L275 568.3055 L230 540.3055 Z" clip-path="url(#clipPath2)"/>
      <text x="247.042" xml:space="preserve" y="545.0193" clip-path="url(#clipPath2)" font-family="sans-serif" stroke="none">Содержит</text>
    </g>
    <g text-rendering="geometricPrecision" stroke-miterlimit="1.45" shape-rendering="geometricPrecision" transform="matrix(1,0,0,1,77,0)" stroke-linecap="butt">
      <path fill="none" d="M800 447 L845 475 L800 503 L755 475 Z" clip-path="url(#clipPath2)"/>
      <text x="780.7402" xml:space="preserve" y="479.7139" clip-path="url(#clipPath2)" font-family="sans-serif" stroke="none">Играет</text>
    </g>
    <g text-rendering="geometricPrecision" stroke-miterlimit="1.45" shape-rendering="geometricPrecision" transform="matrix(1,0,0,1,77,0)" stroke-linecap="butt">
      <path fill="none" d="M675 547 L720 575 L675 603 L630 575 Z" clip-path="url(#clipPath2)"/>
      <text x="651.6562" xml:space="preserve" y="579.7139" clip-path="url(#clipPath2)" font-family="sans-serif" stroke="none">Создает</text>
    </g>
    <g text-rendering="geometricPrecision" stroke-miterlimit="1.45" shape-rendering="geometricPrecision" transform="matrix(1,0,0,1,77,0)" stroke-linecap="butt">
      <path fill="none" d="M794 247 L839 275 L794 303 L749 275 Z" clip-path="url(#clipPath2)"/>
      <text x="770.2373" xml:space="preserve" y="279.7139" clip-path="url(#clipPath2)" font-family="sans-serif" stroke="none">Владеет</text>
    </g>
    <g text-rendering="geometricPrecision" stroke-miterlimit="1.45" shape-rendering="geometricPrecision" transform="matrix(1,0,0,1,77,0)" stroke-linecap="butt">
      <path fill="none" d="M675 147 L720 175 L675 203 L630 175 Z" clip-path="url(#clipPath2)"/>
      <text x="645.2256" xml:space="preserve" y="179.7139" clip-path="url(#clipPath2)" font-family="sans-serif" stroke="none">Оставляет</text>
    </g>
    <g text-rendering="geometricPrecision" stroke-miterlimit="1.45" shape-rendering="geometricPrecision" transform="matrix(1,0,0,1,77,0)" stroke-linecap="butt">
      <ellipse rx="40" fill="none" ry="20" clip-path="url(#clipPath2)" cx="1009" cy="515"/>
      <text x="1003.668" y="519.7139" clip-path="url(#clipPath2)" font-family="sans-serif" stroke="none" font-weight="bold" xml:space="preserve">id</text>
      <line y2="522.3506" fill="none" x1="1003.668" clip-path="url(#clipPath2)" x2="1014.332" y1="522.3506"/>
    </g>
    <g text-rendering="geometricPrecision" stroke-miterlimit="1.45" shape-rendering="geometricPrecision" transform="matrix(1,0,0,1,77,0)" stroke-linecap="butt">
      <ellipse rx="40" fill="none" ry="20" clip-path="url(#clipPath2)" cx="586.9007" cy="699.2836"/>
      <text x="581.5687" y="703.9975" clip-path="url(#clipPath2)" font-family="sans-serif" stroke="none" font-weight="bold" xml:space="preserve">id</text>
      <line y2="706.6342" fill="none" x1="581.5687" clip-path="url(#clipPath2)" x2="592.2327" y1="706.6342"/>
    </g>
    <g text-rendering="geometricPrecision" stroke-miterlimit="1.45" shape-rendering="geometricPrecision" transform="matrix(1,0,0,1,77,0)" stroke-linecap="butt">
      <ellipse rx="40" fill="none" ry="20" clip-path="url(#clipPath2)" cx="755" cy="35"/>
      <text x="749.668" y="39.7139" clip-path="url(#clipPath2)" font-family="sans-serif" stroke="none" font-weight="bold" xml:space="preserve">id</text>
      <line y2="42.3506" fill="none" x1="749.668" clip-path="url(#clipPath2)" x2="760.332" y1="42.3506"/>
    </g>
    <g text-rendering="geometricPrecision" stroke-miterlimit="1.45" shape-rendering="geometricPrecision" transform="matrix(1,0,0,1,77,0)" stroke-linecap="butt">
      <ellipse rx="40" fill="none" ry="20" clip-path="url(#clipPath2)" cx="586.9007" cy="217.1915"/>
      <text x="581.5687" y="221.9053" clip-path="url(#clipPath2)" font-family="sans-serif" stroke="none" font-weight="bold" xml:space="preserve">id</text>
      <line y2="224.5421" fill="none" x1="581.5687" clip-path="url(#clipPath2)" x2="592.2327" y1="224.5421"/>
    </g>
    <g text-rendering="geometricPrecision" stroke-miterlimit="1.45" shape-rendering="geometricPrecision" transform="matrix(1,0,0,1,77,0)" stroke-linecap="butt">
      <ellipse rx="40" fill="none" ry="20" clip-path="url(#clipPath2)" cx="327.0874" cy="595.1228"/>
      <text x="321.7554" y="599.8367" clip-path="url(#clipPath2)" font-family="sans-serif" stroke="none" font-weight="bold" xml:space="preserve">id</text>
      <line y2="602.4734" fill="none" x1="321.7554" clip-path="url(#clipPath2)" x2="332.4195" y1="602.4734"/>
    </g>
    <g text-rendering="geometricPrecision" stroke-miterlimit="1.45" shape-rendering="geometricPrecision" transform="matrix(1,0,0,1,77,0)" stroke-linecap="butt">
      <ellipse rx="40" fill="none" ry="20" clip-path="url(#clipPath2)" cx="67.3878" cy="595.1228"/>
      <text x="62.0558" y="599.8367" clip-path="url(#clipPath2)" font-family="sans-serif" stroke="none" font-weight="bold" xml:space="preserve">id</text>
      <line y2="602.4734" fill="none" x1="62.0558" clip-path="url(#clipPath2)" x2="72.7198" y1="602.4734"/>
    </g>
    <g text-rendering="geometricPrecision" stroke-miterlimit="1.45" shape-rendering="geometricPrecision" transform="matrix(1,0,0,1,77,0)" stroke-linecap="butt">
      <ellipse rx="40" fill="none" ry="20" clip-path="url(#clipPath2)" cx="845.7452" cy="35"/>
      <text x="830.3702" xml:space="preserve" y="39.7139" clip-path="url(#clipPath2)" font-family="sans-serif" stroke="none">Текст</text>
    </g>
    <g text-rendering="geometricPrecision" stroke-miterlimit="1.45" shape-rendering="geometricPrecision" transform="matrix(1,0,0,1,77,0)" stroke-linecap="butt">
      <ellipse rx="40" fill="none" ry="20" clip-path="url(#clipPath2)" cx="936.4905" cy="35"/>
      <text x="923.0051" xml:space="preserve" y="39.7139" clip-path="url(#clipPath2)" font-family="sans-serif" stroke="none">Дата</text>
    </g>
    <g text-rendering="geometricPrecision" stroke-miterlimit="1.45" shape-rendering="geometricPrecision" transform="matrix(1,0,0,1,77,0)" stroke-linecap="butt">
      <ellipse rx="40" fill="none" ry="20" clip-path="url(#clipPath2)" cx="1009" cy="220.7641"/>
      <text x="1003.668" y="225.478" clip-path="url(#clipPath2)" font-family="sans-serif" stroke="none" font-weight="bold" xml:space="preserve">id</text>
      <line y2="228.1147" fill="none" x1="1003.668" clip-path="url(#clipPath2)" x2="1014.332" y1="228.1147"/>
    </g>
    <g text-rendering="geometricPrecision" stroke-miterlimit="1.45" shape-rendering="geometricPrecision" transform="matrix(1,0,0,1,77,0)" stroke-linecap="butt">
      <ellipse rx="40" fill="none" ry="20" clip-path="url(#clipPath2)" cx="495" cy="217.1915"/>
      <text x="483.3135" xml:space="preserve" y="221.9053" clip-path="url(#clipPath2)" font-family="sans-serif" stroke="none">Имя</text>
    </g>
    <g text-rendering="geometricPrecision" stroke-miterlimit="1.45" shape-rendering="geometricPrecision" transform="matrix(1,0,0,1,77,0)" stroke-linecap="butt">
      <ellipse rx="40" fill="none" ry="20" clip-path="url(#clipPath2)" cx="403.0993" cy="217.1915"/>
      <text x="377.6227" xml:space="preserve" y="221.9053" clip-path="url(#clipPath2)" font-family="sans-serif" stroke="none">Фамилия</text>
    </g>
    <g text-rendering="geometricPrecision" stroke-miterlimit="1.45" shape-rendering="geometricPrecision" transform="matrix(1,0,0,1,77,0)" stroke-linecap="butt">
      <ellipse rx="40" fill="none" ry="20" clip-path="url(#clipPath2)" cx="1009" cy="567"/>
      <text x="997.3135" xml:space="preserve" y="571.7139" clip-path="url(#clipPath2)" font-family="sans-serif" stroke="none">Имя</text>
    </g>
    <g text-rendering="geometricPrecision" stroke-miterlimit="1.45" shape-rendering="geometricPrecision" transform="matrix(1,0,0,1,77,0)" stroke-linecap="butt">
      <ellipse rx="40" fill="none" ry="20" clip-path="url(#clipPath2)" cx="1009" cy="619"/>
      <text x="983.5234" xml:space="preserve" y="623.7139" clip-path="url(#clipPath2)" font-family="sans-serif" stroke="none">Фамилия</text>
    </g>
    <g text-rendering="geometricPrecision" stroke-miterlimit="1.45" shape-rendering="geometricPrecision" transform="matrix(1,0,0,1,77,0)" stroke-linecap="butt">
      <ellipse rx="40" fill="none" ry="20" clip-path="url(#clipPath2)" cx="219.2979" cy="217.1915"/>
      <text x="204.1455" xml:space="preserve" y="214.5548" clip-path="url(#clipPath2)" font-family="sans-serif" stroke="none">Дата </text>
      <text x="191.8584" xml:space="preserve" y="229.2559" clip-path="url(#clipPath2)" font-family="sans-serif" stroke="none">рождения</text>
    </g>
    <g text-rendering="geometricPrecision" stroke-miterlimit="1.45" shape-rendering="geometricPrecision" transform="matrix(1,0,0,1,77,0)" stroke-linecap="butt">
      <ellipse rx="40" fill="none" ry="20" clip-path="url(#clipPath2)" cx="1009" cy="723"/>
      <text x="993.8477" xml:space="preserve" y="720.3633" clip-path="url(#clipPath2)" font-family="sans-serif" stroke="none">Дата </text>
      <text x="981.5605" xml:space="preserve" y="735.0645" clip-path="url(#clipPath2)" font-family="sans-serif" stroke="none">рождения</text>
    </g>
    <g text-rendering="geometricPrecision" stroke-miterlimit="1.45" shape-rendering="geometricPrecision" transform="matrix(1,0,0,1,77,0)" stroke-linecap="butt">
      <ellipse rx="40" fill="none" ry="20" clip-path="url(#clipPath2)" cx="311.1986" cy="217.1915"/>
      <text x="300.0482" xml:space="preserve" y="221.9053" clip-path="url(#clipPath2)" font-family="sans-serif" stroke="none">Пол</text>
    </g>
    <g text-rendering="geometricPrecision" stroke-miterlimit="1.45" shape-rendering="geometricPrecision" transform="matrix(1,0,0,1,77,0)" stroke-linecap="butt">
      <ellipse rx="40" fill="none" ry="20" clip-path="url(#clipPath2)" cx="1009" cy="671"/>
      <text x="997.8496" xml:space="preserve" y="675.7139" clip-path="url(#clipPath2)" font-family="sans-serif" stroke="none">Пол</text>
    </g>
    <g text-rendering="geometricPrecision" stroke-miterlimit="1.45" shape-rendering="geometricPrecision" transform="matrix(1,0,0,1,77,0)" stroke-linecap="butt">
      <ellipse rx="40" fill="none" ry="20" clip-path="url(#clipPath2)" cx="586.9007" cy="752.2032"/>
      <text x="575.2142" xml:space="preserve" y="756.9171" clip-path="url(#clipPath2)" font-family="sans-serif" stroke="none">Имя</text>
    </g>
    <g text-rendering="geometricPrecision" stroke-miterlimit="1.45" shape-rendering="geometricPrecision" transform="matrix(1,0,0,1,77,0)" stroke-linecap="butt">
      <ellipse rx="40" fill="none" ry="20" clip-path="url(#clipPath2)" cx="586.9007" cy="805.1228"/>
      <text x="561.4241" xml:space="preserve" y="809.8367" clip-path="url(#clipPath2)" font-family="sans-serif" stroke="none">Фамилия</text>
    </g>
    <g text-rendering="geometricPrecision" stroke-miterlimit="1.45" shape-rendering="geometricPrecision" transform="matrix(1,0,0,1,77,0)" stroke-linecap="butt">
      <ellipse rx="40" fill="none" ry="20" clip-path="url(#clipPath2)" cx="327.0874" cy="759.5749"/>
      <text x="293.0005" xml:space="preserve" y="756.9382" clip-path="url(#clipPath2)" font-family="sans-serif" stroke="none">Количество </text>
      <text x="310.7105" xml:space="preserve" y="771.6393" clip-path="url(#clipPath2)" font-family="sans-serif" stroke="none">серий</text>
    </g>
    <g text-rendering="geometricPrecision" stroke-miterlimit="1.45" shape-rendering="geometricPrecision" transform="matrix(1,0,0,1,77,0)" stroke-linecap="butt">
      <ellipse rx="40" fill="none" ry="20" clip-path="url(#clipPath2)" cx="327.0874" cy="649.9402"/>
      <text x="300.1402" xml:space="preserve" y="654.6541" clip-path="url(#clipPath2)" font-family="sans-serif" stroke="none">Название</text>
    </g>
    <g text-rendering="geometricPrecision" stroke-miterlimit="1.45" shape-rendering="geometricPrecision" transform="matrix(1,0,0,1,77,0)" stroke-linecap="butt">
      <ellipse rx="40" fill="none" ry="20" clip-path="url(#clipPath2)" cx="327.0874" cy="704.7576"/>
      <text x="308.6187" xml:space="preserve" y="709.4714" clip-path="url(#clipPath2)" font-family="sans-serif" stroke="none">Номер</text>
    </g>
    <g text-rendering="geometricPrecision" stroke-miterlimit="1.45" shape-rendering="geometricPrecision" transform="matrix(1,0,0,1,77,0)" stroke-linecap="butt">
      <ellipse rx="40" fill="none" ry="20" clip-path="url(#clipPath2)" cx="327.0874" cy="814.3923"/>
      <text x="291.2603" xml:space="preserve" y="819.1061" clip-path="url(#clipPath2)" font-family="sans-serif" stroke="none">Дата выхода</text>
    </g>
    <g text-rendering="geometricPrecision" stroke-miterlimit="1.45" shape-rendering="geometricPrecision" transform="matrix(1,0,0,1,77,0)" stroke-linecap="butt">
      <ellipse rx="40" fill="none" ry="20" clip-path="url(#clipPath2)" cx="67.3878" cy="649.9402"/>
      <text x="40.4405" xml:space="preserve" y="654.6541" clip-path="url(#clipPath2)" font-family="sans-serif" stroke="none">Название</text>
    </g>
    <g text-rendering="geometricPrecision" stroke-miterlimit="1.45" shape-rendering="geometricPrecision" transform="matrix(1,0,0,1,77,0)" stroke-linecap="butt">
      <ellipse rx="40" fill="none" ry="20" clip-path="url(#clipPath2)" cx="67.3878" cy="814.3923"/>
      <text x="31.5606" xml:space="preserve" y="819.1061" clip-path="url(#clipPath2)" font-family="sans-serif" stroke="none">Дата выхода</text>
    </g>
    <g text-rendering="geometricPrecision" stroke-miterlimit="1.45" shape-rendering="geometricPrecision" transform="matrix(1,0,0,1,77,0)" stroke-linecap="butt">
      <ellipse rx="40" fill="none" ry="20" clip-path="url(#clipPath2)" cx="67.3878" cy="704.7576"/>
      <text x="48.919" xml:space="preserve" y="709.4714" clip-path="url(#clipPath2)" font-family="sans-serif" stroke="none">Номер</text>
    </g>
    <g text-rendering="geometricPrecision" stroke-miterlimit="1.45" shape-rendering="geometricPrecision" transform="matrix(1,0,0,1,77,0)" stroke-linecap="butt">
      <ellipse rx="40" fill="none" ry="20" clip-path="url(#clipPath2)" cx="67.3878" cy="759.5749"/>
      <text x="28.2354" xml:space="preserve" y="764.2888" clip-path="url(#clipPath2)" font-family="sans-serif" stroke="none">Длительность</text>
    </g>
    <g text-rendering="geometricPrecision" stroke-miterlimit="1.45" shape-rendering="geometricPrecision" transform="matrix(1,0,0,1,77,0)" stroke-linecap="butt">
      <ellipse rx="40" fill="none" ry="20" clip-path="url(#clipPath2)" cx="1009" cy="167"/>
      <text x="974.9131" xml:space="preserve" y="164.3633" clip-path="url(#clipPath2)" font-family="sans-serif" stroke="none">Количество </text>
      <text x="982.6123" xml:space="preserve" y="179.0645" clip-path="url(#clipPath2)" font-family="sans-serif" stroke="none">сериалов</text>
    </g>
    <g text-rendering="geometricPrecision" stroke-miterlimit="1.45" shape-rendering="geometricPrecision" transform="matrix(1,0,0,1,77,0)" stroke-linecap="butt">
      <path fill="none" d="M921.3393 325 L966.3393 353 L921.3393 381 L876.3393 353 Z" clip-path="url(#clipPath2)"/>
      <text x="893.3813" xml:space="preserve" y="357.7139" clip-path="url(#clipPath2)" font-family="sans-serif" stroke="none">Содержит</text>
    </g>
    <g text-rendering="geometricPrecision" stroke-miterlimit="1.45" shape-rendering="geometricPrecision" transform="matrix(1,0,0,1,77,0)" stroke-linecap="butt">
      <ellipse rx="40" fill="none" ry="20" clip-path="url(#clipPath2)" cx="65.4965" cy="429"/>
      <text x="43.2045" xml:space="preserve" y="433.7139" clip-path="url(#clipPath2)" font-family="sans-serif" stroke="none">Рейтинг</text>
    </g>
    <g text-rendering="geometricPrecision" stroke-miterlimit="1.45" shape-rendering="geometricPrecision" transform="matrix(1,0,0,1,77,0)" stroke-linecap="butt">
      <ellipse rx="40" fill="none" ry="20" clip-path="url(#clipPath2)" cx="-21.4042" cy="429"/>
      <text x="-53.833" xml:space="preserve" y="433.7139" clip-path="url(#clipPath2)" font-family="sans-serif" stroke="none">Год выхода</text>
    </g>
    <g text-rendering="geometricPrecision" stroke-miterlimit="1.45" shape-rendering="geometricPrecision" transform="matrix(1,0,0,1,77,0)" stroke-linecap="butt">
      <ellipse rx="40" fill="none" ry="20" clip-path="url(#clipPath2)" cx="239.2979" cy="429"/>
      <text x="223.7705" xml:space="preserve" y="433.7139" clip-path="url(#clipPath2)" font-family="sans-serif" stroke="none">Жанр</text>
    </g>
    <g text-rendering="geometricPrecision" stroke-miterlimit="1.45" shape-rendering="geometricPrecision" transform="matrix(1,0,0,1,77,0)" stroke-linecap="butt">
      <ellipse rx="40" fill="none" ry="20" clip-path="url(#clipPath2)" cx="152.3972" cy="429"/>
      <text x="124.7907" xml:space="preserve" y="433.7139" clip-path="url(#clipPath2)" font-family="sans-serif" stroke="none">Описание</text>
    </g>
    <g text-rendering="geometricPrecision" stroke-miterlimit="1.45" shape-rendering="geometricPrecision" transform="matrix(1,0,0,1,77,0)" stroke-linecap="butt">
      <ellipse rx="40" fill="none" ry="20" clip-path="url(#clipPath2)" cx="500" cy="429"/>
      <text x="473.0527" xml:space="preserve" y="433.7139" clip-path="url(#clipPath2)" font-family="sans-serif" stroke="none">Название</text>
    </g>
    <g text-rendering="geometricPrecision" stroke-miterlimit="1.45" shape-rendering="geometricPrecision" transform="matrix(1,0,0,1,77,0)" stroke-linecap="butt">
      <ellipse rx="40" fill="none" ry="20" clip-path="url(#clipPath2)" cx="413.0993" cy="429"/>
      <text x="373.947" xml:space="preserve" y="433.7139" clip-path="url(#clipPath2)" font-family="sans-serif" stroke="none">Длительность</text>
    </g>
    <g text-rendering="geometricPrecision" stroke-miterlimit="1.45" shape-rendering="geometricPrecision" transform="matrix(1,0,0,1,77,0)" stroke-linecap="butt">
      <ellipse rx="40" fill="none" ry="20" clip-path="url(#clipPath2)" cx="326.1986" cy="429"/>
      <text x="292.1117" xml:space="preserve" y="426.3633" clip-path="url(#clipPath2)" font-family="sans-serif" stroke="none">Количество </text>
      <text x="303.9359" xml:space="preserve" y="441.0645" clip-path="url(#clipPath2)" font-family="sans-serif" stroke="none">сезонов</text>
    </g>
    <g text-rendering="geometricPrecision" stroke-miterlimit="1.45" shape-rendering="geometricPrecision" transform="matrix(1,0,0,1,77,0)" stroke-linecap="butt">
      <ellipse rx="40" fill="none" ry="20" clip-path="url(#clipPath2)" cx="586.9007" cy="429"/>
      <text x="581.5687" y="433.7139" clip-path="url(#clipPath2)" font-family="sans-serif" stroke="none" font-weight="bold" xml:space="preserve">id</text>
      <line y2="436.3506" fill="none" x1="581.5687" clip-path="url(#clipPath2)" x2="592.2327" y1="436.3506"/>
    </g>
    <g text-rendering="geometricPrecision" stroke-miterlimit="1.45" shape-rendering="geometricPrecision" transform="matrix(1,0,0,1,77,0)" stroke-linecap="butt">
      <path fill="none" d="M675 304 L675 347" clip-path="url(#clipPath2)"/>
    </g>
    <g text-rendering="geometricPrecision" stroke-miterlimit="1.45" shape-rendering="geometricPrecision" transform="matrix(0,-1,1,0,752,295)" stroke-linecap="butt">
      <line y2="8" fill="none" x1="-10" clip-path="url(#clipPath3)" x2="2" y1="0"/>
      <line y2="0" fill="none" x1="-10" clip-path="url(#clipPath3)" x2="2" y1="0"/>
      <line y2="-8" fill="none" x1="-10" clip-path="url(#clipPath3)" x2="2" y1="0"/>
    </g>
    <g text-rendering="geometricPrecision" stroke-miterlimit="1.45" shape-rendering="geometricPrecision" font-family="sans-serif" transform="matrix(1,0,0,1,77,0)" stroke-linecap="butt">
      <text x="686.9913" xml:space="preserve" y="314.0645" clip-path="url(#clipPath2)" stroke="none">N</text>
      <path fill="none" d="M675 445.9746 L675 403" clip-path="url(#clipPath2)"/>
      <line transform="matrix(0,1,-1,0,675,454.9746)" clip-path="url(#clipPath4)" fill="none" x1="-10" x2="2" y1="0" y2="8"/>
      <line transform="matrix(0,1,-1,0,675,454.9746)" clip-path="url(#clipPath4)" fill="none" x1="-10" x2="2" y1="0" y2="0"/>
      <line transform="matrix(0,1,-1,0,675,454.9746)" clip-path="url(#clipPath4)" fill="none" x1="-10" x2="2" y1="0" y2="-8"/>
    </g>
    <g text-rendering="geometricPrecision" stroke-miterlimit="1.45" shape-rendering="geometricPrecision" font-family="sans-serif" transform="matrix(1,0,0,1,77,0)" stroke-linecap="butt">
      <text x="656.517" xml:space="preserve" y="445.3633" clip-path="url(#clipPath2)" stroke="none">M</text>
      <path fill="none" d="M650 495 L650 540.3055 L570 540.3055" clip-path="url(#clipPath2)"/>
      <line transform="matrix(0,-1,1,0,650,495)" clip-path="url(#clipPath5)" fill="none" x1="-10" x2="-10" y1="-8" y2="8"/>
    </g>
    <g text-rendering="geometricPrecision" stroke-miterlimit="1.45" shape-rendering="geometricPrecision" font-family="sans-serif" transform="matrix(1,0,0,1,77,0)" stroke-linecap="butt">
      <text x="635.9963" xml:space="preserve" y="514.0645" clip-path="url(#clipPath2)" stroke="none">1</text>
      <path fill="none" d="M453 540.3055 L480 540.3055" clip-path="url(#clipPath2)"/>
      <line transform="matrix(-1,0,0,-1,444,540.3055)" clip-path="url(#clipPath6)" fill="none" x1="-10" x2="2" y1="0" y2="8"/>
      <line transform="matrix(-1,0,0,-1,444,540.3055)" clip-path="url(#clipPath6)" fill="none" x1="-10" x2="2" y1="0" y2="0"/>
      <line transform="matrix(-1,0,0,-1,444,540.3055)" clip-path="url(#clipPath6)" fill="none" x1="-10" x2="2" y1="0" y2="-8"/>
    </g>
    <g text-rendering="geometricPrecision" stroke-miterlimit="1.45" shape-rendering="geometricPrecision" font-family="sans-serif" transform="matrix(1,0,0,1,77,0)" stroke-linecap="butt">
      <text x="451" xml:space="preserve" y="529.6146" clip-path="url(#clipPath2)" stroke="none">N</text>
      <path fill="none" d="M203 540.3055 L230 540.3055" clip-path="url(#clipPath2)"/>
      <line transform="matrix(-1,0,0,-1,194,540.3055)" clip-path="url(#clipPath6)" fill="none" x1="-10" x2="2" y1="0" y2="8"/>
      <line transform="matrix(-1,0,0,-1,194,540.3055)" clip-path="url(#clipPath6)" fill="none" x1="-10" x2="2" y1="0" y2="0"/>
      <line transform="matrix(-1,0,0,-1,194,540.3055)" clip-path="url(#clipPath6)" fill="none" x1="-10" x2="2" y1="0" y2="-8"/>
    </g>
    <g text-rendering="geometricPrecision" stroke-miterlimit="1.45" shape-rendering="geometricPrecision" font-family="sans-serif" transform="matrix(1,0,0,1,77,0)" stroke-linecap="butt">
      <text x="201.5243" xml:space="preserve" y="531.5719" clip-path="url(#clipPath2)" stroke="none">N</text>
      <path fill="none" d="M355.9648 540.3055 L320 540.3055" clip-path="url(#clipPath2)"/>
      <line transform="matrix(1,0,0,1,355.9648,540.3055)" clip-path="url(#clipPath7)" fill="none" x1="-10" x2="-10" y1="-8" y2="8"/>
    </g>
    <g text-rendering="geometricPrecision" stroke-miterlimit="1.45" shape-rendering="geometricPrecision" font-family="sans-serif" transform="matrix(1,0,0,1,77,0)" stroke-linecap="butt">
      <text x="342.3262" xml:space="preserve" y="527.0877" clip-path="url(#clipPath2)" stroke="none">1</text>
      <path fill="none" d="M728 475 L754.9648 475" clip-path="url(#clipPath2)"/>
      <line transform="matrix(-1,0,0,-1,719,475)" clip-path="url(#clipPath6)" fill="none" x1="-10" x2="2" y1="0" y2="8"/>
      <line transform="matrix(-1,0,0,-1,719,475)" clip-path="url(#clipPath6)" fill="none" x1="-10" x2="2" y1="0" y2="0"/>
      <line transform="matrix(-1,0,0,-1,719,475)" clip-path="url(#clipPath6)" fill="none" x1="-10" x2="2" y1="0" y2="-8"/>
    </g>
    <g text-rendering="geometricPrecision" stroke-miterlimit="1.45" shape-rendering="geometricPrecision" font-family="sans-serif" transform="matrix(1,0,0,1,77,0)" stroke-linecap="butt">
      <text x="726" xml:space="preserve" y="467.7184" clip-path="url(#clipPath2)" stroke="none">M</text>
      <path fill="none" d="M871.9648 475 L845 475" clip-path="url(#clipPath2)"/>
      <line transform="matrix(1,0,0,1,880.9648,475)" clip-path="url(#clipPath8)" fill="none" x1="-10" x2="2" y1="0" y2="8"/>
      <line transform="matrix(1,0,0,1,880.9648,475)" clip-path="url(#clipPath8)" fill="none" x1="-10" x2="2" y1="0" y2="0"/>
      <line transform="matrix(1,0,0,1,880.9648,475)" clip-path="url(#clipPath8)" fill="none" x1="-10" x2="2" y1="0" y2="-8"/>
    </g>
    <g text-rendering="geometricPrecision" stroke-miterlimit="1.45" shape-rendering="geometricPrecision" font-family="sans-serif" transform="matrix(1,0,0,1,77,0)" stroke-linecap="butt">
      <text x="866.0856" xml:space="preserve" y="466.1444" clip-path="url(#clipPath2)" stroke="none">N</text>
      <path fill="none" d="M675 504 L675 547" clip-path="url(#clipPath2)"/>
      <line transform="matrix(0,-1,1,0,675,495)" clip-path="url(#clipPath3)" fill="none" x1="-10" x2="2" y1="0" y2="8"/>
      <line transform="matrix(0,-1,1,0,675,495)" clip-path="url(#clipPath3)" fill="none" x1="-10" x2="2" y1="0" y2="0"/>
      <line transform="matrix(0,-1,1,0,675,495)" clip-path="url(#clipPath3)" fill="none" x1="-10" x2="2" y1="0" y2="-8"/>
    </g>
    <g text-rendering="geometricPrecision" stroke-miterlimit="1.45" shape-rendering="geometricPrecision" font-family="sans-serif" transform="matrix(1,0,0,1,77,0)" stroke-linecap="butt">
      <text x="681.4794" xml:space="preserve" y="514.0645" clip-path="url(#clipPath2)" stroke="none">M</text>
      <path fill="none" d="M675 632.9707 L675 603" clip-path="url(#clipPath2)"/>
      <line transform="matrix(0,1,-1,0,675,632.9707)" clip-path="url(#clipPath9)" fill="none" x1="-10" x2="-10" y1="-8" y2="8"/>
    </g>
    <g text-rendering="geometricPrecision" stroke-miterlimit="1.45" shape-rendering="geometricPrecision" font-family="sans-serif" transform="matrix(1,0,0,1,77,0)" stroke-linecap="butt">
      <text x="653.7217" xml:space="preserve" y="624.4119" clip-path="url(#clipPath2)" stroke="none">1</text>
      <path fill="none" d="M881.3281 275 L838.9859 275" clip-path="url(#clipPath2)"/>
      <line transform="matrix(1,0,0,1,881.3281,275)" clip-path="url(#clipPath10)" fill="none" x1="-10" x2="-10" y1="-8" y2="8"/>
    </g>
    <g text-rendering="geometricPrecision" stroke-miterlimit="1.45" shape-rendering="geometricPrecision" font-family="sans-serif" transform="matrix(1,0,0,1,77,0)" stroke-linecap="butt">
      <text x="867.6655" xml:space="preserve" y="258.5043" clip-path="url(#clipPath2)" stroke="none">1</text>
      <path fill="none" d="M719.0149 275 L749.0016 275" clip-path="url(#clipPath2)"/>
      <line transform="matrix(-1,0,0,-1,719.0149,275)" clip-path="url(#clipPath11)" fill="none" x1="-10" x2="-10" y1="-8" y2="8"/>
    </g>
    <g text-rendering="geometricPrecision" stroke-miterlimit="1.45" shape-rendering="geometricPrecision" font-family="sans-serif" transform="matrix(1,0,0,1,77,0)" stroke-linecap="butt">
      <text x="726" xml:space="preserve" y="261.4288" clip-path="url(#clipPath2)" stroke="none">1</text>
      <path fill="none" d="M675 104 L675 147" clip-path="url(#clipPath2)"/>
      <line transform="matrix(0,-1,1,0,675,95)" clip-path="url(#clipPath3)" fill="none" x1="-10" x2="2" y1="0" y2="8"/>
      <line transform="matrix(0,-1,1,0,675,95)" clip-path="url(#clipPath3)" fill="none" x1="-10" x2="2" y1="0" y2="0"/>
      <line transform="matrix(0,-1,1,0,675,95)" clip-path="url(#clipPath3)" fill="none" x1="-10" x2="2" y1="0" y2="-8"/>
    </g>
    <g text-rendering="geometricPrecision" stroke-miterlimit="1.45" shape-rendering="geometricPrecision" font-family="sans-serif" transform="matrix(1,0,0,1,77,0)" stroke-linecap="butt">
      <text x="685.5937" xml:space="preserve" y="114.0645" clip-path="url(#clipPath2)" stroke="none">N</text>
      <path fill="none" d="M675 254.9746 L675 203" clip-path="url(#clipPath2)"/>
      <line transform="matrix(0,1,-1,0,675,254.9746)" clip-path="url(#clipPath12)" fill="none" x1="-10" x2="-10" y1="-8" y2="8"/>
    </g>
    <g text-rendering="geometricPrecision" stroke-miterlimit="1.45" shape-rendering="geometricPrecision" font-family="sans-serif" transform="matrix(1,0,0,1,77,0)" stroke-linecap="butt">
      <text x="686.8829" xml:space="preserve" y="245.3633" clip-path="url(#clipPath2)" stroke="none">1</text>
      <path fill="none" d="M925 494.9609 L925 515 L969.0098 515" clip-path="url(#clipPath2)"/>
      <path fill="none" d="M675 673 L675 699.2836 L626.8637 699.2836" clip-path="url(#clipPath2)"/>
      <path fill="none" d="M755 54.9609 L755 75 L714.9609 75" clip-path="url(#clipPath2)"/>
      <path fill="none" d="M630.9933 275 L586.9007 275 L586.9007 237.2043" clip-path="url(#clipPath2)"/>
      <path fill="none" d="M400 560.2999 L400 595.1228 L367.0683 595.1228" clip-path="url(#clipPath2)"/>
      <path fill="none" d="M150 560.2999 L150 595.1228 L107.3627 595.1228" clip-path="url(#clipPath2)"/>
      <path fill="none" d="M845.7452 54.9609 L845.7452 75 L714.9767 75" clip-path="url(#clipPath2)"/>
      <path fill="none" d="M936.4905 54.9609 L936.4905 75 L714.996 75" clip-path="url(#clipPath2)"/>
      <path fill="none" d="M968.9791 220.7641 L921.3393 220.7641 L921.3393 255.0058" clip-path="url(#clipPath2)"/>
      <path fill="none" d="M631.0107 275 L495 275 L495 237.2043" clip-path="url(#clipPath2)"/>
      <path fill="none" d="M631.0219 275 L403.0993 275 L403.0993 237.2043" clip-path="url(#clipPath2)"/>
      <path fill="none" d="M925 494.9902 L925 567 L969.0098 567" clip-path="url(#clipPath2)"/>
      <path fill="none" d="M925 495.0039 L925 619 L969.0098 619" clip-path="url(#clipPath2)"/>
      <path fill="none" d="M219.2979 237.2043 L219.2979 275 L631.0263 275" clip-path="url(#clipPath2)"/>
      <path fill="none" d="M969.0098 723 L925 723 L925 495.0107" clip-path="url(#clipPath2)"/>
      <path fill="none" d="M311.1986 237.2043 L311.1986 275 L630.9904 275" clip-path="url(#clipPath2)"/>
      <path fill="none" d="M969.0098 671 L925 671 L925 494.9541" clip-path="url(#clipPath2)"/>
      <path fill="none" d="M675 673.0053 L675 752.2032 L626.8637 752.2032" clip-path="url(#clipPath2)"/>
      <path fill="none" d="M675 673.0181 L675 805.1228 L626.8637 805.1228" clip-path="url(#clipPath2)"/>
      <path fill="none" d="M367.0683 759.5749 L400 759.5749 L400 560.2999" clip-path="url(#clipPath2)"/>
      <path fill="none" d="M400 560.2999 L400 649.9402 L367.0683 649.9402" clip-path="url(#clipPath2)"/>
      <path fill="none" d="M367.0683 704.7576 L400 704.7576 L400 560.34" clip-path="url(#clipPath2)"/>
      <path fill="none" d="M400 560.2798 L400 814.3923 L367.0683 814.3923" clip-path="url(#clipPath2)"/>
      <path fill="none" d="M150 560.2999 L150 649.9402 L107.3627 649.9402" clip-path="url(#clipPath2)"/>
      <path fill="none" d="M150 560.2798 L150 814.3923 L107.3627 814.3923" clip-path="url(#clipPath2)"/>
      <path fill="none" d="M150 560.34 L150 704.7576 L107.3627 704.7576" clip-path="url(#clipPath2)"/>
      <path fill="none" d="M150 560.2999 L150 759.5749 L107.3627 759.5749" clip-path="url(#clipPath2)"/>
      <path fill="none" d="M968.9791 167 L921.3393 167 L921.3393 254.9873" clip-path="url(#clipPath2)"/>
      <path fill="none" d="M921.3393 303.9951 L921.3393 324.9889" clip-path="url(#clipPath2)"/>
      <line transform="matrix(0,-1,1,0,921.3393,294.9951)" clip-path="url(#clipPath3)" fill="none" x1="-10" x2="2" y1="0" y2="8"/>
      <line transform="matrix(0,-1,1,0,921.3393,294.9951)" clip-path="url(#clipPath3)" fill="none" x1="-10" x2="2" y1="0" y2="0"/>
      <line transform="matrix(0,-1,1,0,921.3393,294.9951)" clip-path="url(#clipPath3)" fill="none" x1="-10" x2="2" y1="0" y2="-8"/>
    </g>
    <g text-rendering="geometricPrecision" stroke-miterlimit="1.45" shape-rendering="geometricPrecision" font-family="sans-serif" transform="matrix(1,0,0,1,77,0)" stroke-linecap="butt">
      <text x="937.1413" xml:space="preserve" y="314.0645" clip-path="url(#clipPath2)" stroke="none">N</text>
      <path fill="none" d="M696.4771 446.0262 L696.4771 417.6922 L921.3393 417.6922 L921.3393 381.0185" clip-path="url(#clipPath2)"/>
      <line transform="matrix(0,1,-1,0,696.4771,455.0262)" clip-path="url(#clipPath4)" fill="none" x1="-10" x2="2" y1="0" y2="8"/>
      <line transform="matrix(0,1,-1,0,696.4771,455.0262)" clip-path="url(#clipPath4)" fill="none" x1="-10" x2="2" y1="0" y2="0"/>
      <line transform="matrix(0,1,-1,0,696.4771,455.0262)" clip-path="url(#clipPath4)" fill="none" x1="-10" x2="2" y1="0" y2="-8"/>
    </g>
    <g text-rendering="geometricPrecision" stroke-miterlimit="1.45" shape-rendering="geometricPrecision" font-family="sans-serif" transform="matrix(1,0,0,1,77,0)" stroke-linecap="butt">
      <text x="703.2419" xml:space="preserve" y="445.6414" clip-path="url(#clipPath2)" stroke="none">M</text>
      <path fill="none" d="M630.991 475 L65.4965 475 L65.4965 448.9902" clip-path="url(#clipPath2)"/>
      <path fill="none" d="M-21.4042 448.9902 L-21.4042 475 L631.0072 475" clip-path="url(#clipPath2)"/>
      <path fill="none" d="M630.9883 475 L239.2979 475 L239.2979 448.9902" clip-path="url(#clipPath2)"/>
      <path fill="none" d="M631.0139 475 L152.3972 475 L152.3972 448.9902" clip-path="url(#clipPath2)"/>
      <path fill="none" d="M631.0364 475 L500 475 L500 448.9902" clip-path="url(#clipPath2)"/>
      <path fill="none" d="M413.0993 448.9902 L413.0993 475 L630.9769 475" clip-path="url(#clipPath2)"/>
      <path fill="none" d="M631.0166 475 L326.1986 475 L326.1986 448.9902" clip-path="url(#clipPath2)"/>
      <path fill="none" d="M630.9933 475 L586.9007 475 L586.9007 448.9902" clip-path="url(#clipPath2)"/>
    </g>
  </g>
</svg>
